# xmcd CD database file
#
# Track frame offsets:
#	150
#	49075
#	102365
#	160706
#	199998
#
# Disc length: 3073 seconds
#
# Revision: 0
# Processed by: cddbd v1.5.1PL2 Copyright (c) Steve Scherf et al.
# Submitted via: CDex 1.51
#
DISCID=3c0bff05
DTITLE=Llewellyn and Juliana - Crystal Child
DYEAR=2005
DGENRE=New Age
TTITLE0=Crystal Child
TTITLE1=Indigo Eyes
TTITLE2=Opening Hearts
TTITLE3=A Glimpse Of Paradise
TTITLE4=Crystal Child (vocal version)
EXTD=YEAR: 2005
EXTT0=
EXTT1=
EXTT2=
EXTT3=
EXTT4=
PLAYORDER=
